<?xml version="1.0" encoding="utf-8"?>
<!-- Generator: Adobe Illustrator 23.0.4, SVG Export Plug-In . SVG Version: 6.00 Build 0)  -->
<svg version="1.1" id="Capa_1" xmlns="http://www.w3.org/2000/svg" xmlns:xlink="http://www.w3.org/1999/xlink" x="0px" y="0px"
	 viewBox="0 0 1920 702.9" style="enable-background:new 0 0 1920 702.9;" xml:space="preserve">
<style type="text/css">
	.st0{fill:#472D7E;}
</style>
<g>
	<g>
		<polygon class="st0" points="225.3,349.6 275.9,320.4 219.3,287.9 168.9,317 		"/>
		<polygon class="st0" points="106.6,480.2 53,449.1 53,384 163,447.6 		"/>
		<polygon class="st0" points="109.4,289.5 109.4,412.9 53,380.3 53,322 		"/>
		<polygon class="st0" points="219.4,415.1 165.8,384 165.8,318.9 275.9,382.5 		"/>
		<polygon class="st0" points="165.8,514.3 278.6,449.1 278.6,384 109.4,481.7 		"/>
		<polygon class="st0" points="225.3,223.1 278.6,253.7 278.6,318.9 168.9,255.7 		"/>
		<polygon class="st0" points="165.8,188.6 53,253.7 53,318.9 222.2,221.1 		"/>
	</g>
	<g>
		<path class="st0" d="M361.9,403.7v-105c0-2.4,1.2-3.7,3.7-3.7h41.9c9.2,0,16.3,2.4,21.3,7.3c5,4.9,7.5,11.9,7.5,21v7.2
			c0,9.9-4.6,16.3-13.8,19.2c4.7,0.7,8.4,2.6,11.2,5.7c2.8,3.1,4.2,7.5,4.2,13.2V379c0,9.1-2.5,16.1-7.5,21
			c-5,4.9-12.1,7.3-21.1,7.3h-43.7C363.1,407.3,361.9,406.1,361.9,403.7z M386,340.6h17.8c3.7,0,6.5-0.8,8.2-2.4
			c1.7-1.6,2.6-4.2,2.6-7.8v-6.8c0-3.6-0.8-6.2-2.5-7.8c-1.7-1.6-4.4-2.4-8.1-2.4h-18c-1.3,0-1.9,0.6-1.9,1.9v23.2
			C384.1,340,384.7,340.6,386,340.6z M386,388.8h19.6c3.8,0,6.6-0.8,8.3-2.4c1.7-1.6,2.5-4.2,2.5-7.8v-10.1c0-3.6-0.9-6.2-2.6-7.7
			c-1.7-1.5-4.6-2.3-8.6-2.3H386c-1.3,0-1.9,0.6-1.9,1.9v26.4C384.1,388.2,384.7,388.8,386,388.8z"/>
		<path class="st0" d="M505.5,407.3h-19.6c-9.2,0-16.3-2.4-21.3-7.3c-5-4.9-7.5-11.9-7.5-21.1v-55.4c0-9.2,2.5-16.2,7.5-21.1
			c5-4.9,12.1-7.3,21.3-7.3h19.6c9.2,0,16.3,2.4,21.3,7.3c5,4.9,7.5,11.9,7.5,21.1v55.4c0,9.2-2.5,16.2-7.5,21.1
			C521.8,404.9,514.7,407.3,505.5,407.3z M489.4,388.1h12.4c3.7,0,6.4-0.8,7.9-2.4s2.4-4.2,2.4-7.9v-53.3c0-3.7-0.8-6.4-2.4-7.9
			s-4.2-2.4-7.9-2.4h-12.4c-3.7,0-6.3,0.8-7.9,2.4c-1.5,1.6-2.3,4.2-2.3,7.9v53.3c0,3.7,0.8,6.4,2.3,7.9
			C483.1,387.3,485.7,388.1,489.4,388.1z"/>
		<path class="st0" d="M601.9,407.3h-19.6c-9.2,0-16.3-2.4-21.3-7.3c-5-4.9-7.5-11.9-7.5-21.1v-55.4c0-9.2,2.5-16.2,7.5-21.1
			c5-4.9,12.1-7.3,21.3-7.3h19.6c9.2,0,16.3,2.4,21.3,7.3c5,4.9,7.5,11.9,7.5,21.1v55.4c0,9.2-2.5,16.2-7.5,21.1
			C618.2,404.9,611.1,407.3,601.9,407.3z M585.9,388.1h12.4c3.7,0,6.4-0.8,7.9-2.4s2.4-4.2,2.4-7.9v-53.3c0-3.7-0.8-6.4-2.4-7.9
			s-4.2-2.4-7.9-2.4h-12.4c-3.7,0-6.3,0.8-7.9,2.4c-1.5,1.6-2.3,4.2-2.3,7.9v53.3c0,3.7,0.8,6.4,2.3,7.9
			C579.5,387.3,582.1,388.1,585.9,388.1z"/>
		<path class="st0" d="M686.5,407.3h-14.7c-2.6,0-3.8-1.2-3.8-3.7v-87.5c0-1.3-0.6-1.9-1.9-1.9h-19.9c-2.4,0-3.7-1.2-3.7-3.7v-11.9
			c0-2.4,1.2-3.7,3.7-3.7h66c2.4,0,3.7,1.2,3.7,3.7v11.9c0,2.4-1.2,3.7-3.7,3.7h-19.9c-1.4,0-2.1,0.6-2.1,1.9v87.5
			C690.2,406.1,689,407.3,686.5,407.3z"/>
		<path class="st0" d="M775.3,407.3h-19c-9.2,0-16.3-2.4-21.3-7.3c-5-4.9-7.5-11.9-7.5-21.1v-55.4c0-9.2,2.5-16.2,7.5-21.1
			c5-4.9,12.1-7.3,21.3-7.3h19c9.1,0,16.2,2.5,21.2,7.4c5.1,5,7.6,12,7.6,21.1v8.2c0,2.6-1.3,3.8-3.8,3.8h-14.7
			c-2.4,0-3.7-1.3-3.7-3.8v-7.2c0-3.7-0.8-6.4-2.4-7.9s-4.2-2.4-8-2.4h-11.9c-3.6,0-6.2,0.8-7.8,2.4s-2.4,4.2-2.4,7.9v53.3
			c0,3.7,0.8,6.4,2.4,7.9s4.2,2.4,7.8,2.4h11.9c3.7,0,6.4-0.8,8-2.4s2.4-4.2,2.4-7.9v-7.2c0-2.6,1.2-3.8,3.7-3.8h14.7
			c2.6,0,3.8,1.3,3.8,3.8v8.2c0,9.1-2.5,16.1-7.6,21.1C791.4,404.9,784.4,407.3,775.3,407.3z"/>
		<path class="st0" d="M834.8,407.3h-16.8c-2.1,0-2.8-1.2-2.1-3.7l27.6-105c0.8-2.4,2.6-3.7,5.2-3.7h23.2c2.9,0,4.7,1.2,5.2,3.7
			l27.6,105c0.7,2.4,0,3.7-2.1,3.7H886c-1.3,0-2.2-0.3-2.6-0.8c-0.5-0.5-0.8-1.5-1-2.9l-4.9-19.2h-34.1l-4.9,19.2
			c-0.2,1.4-0.6,2.4-1.1,2.9C836.9,407.1,836,407.3,834.8,407.3z M860.2,316.1l-12.6,50.5h25.9l-12.6-50.5H860.2z"/>
		<path class="st0" d="M995.1,295h25.9c2.4,0,3.7,1.2,3.7,3.7v105c0,2.4-1.2,3.7-3.7,3.7h-14.3c-2.4,0-3.7-1.2-3.7-3.7v-82.8h-0.7
			l-17.8,58.5c-0.7,2.3-2.2,3.5-4.4,3.5h-14.7c-2.2,0-3.7-1.2-4.4-3.5l-18.2-58.7h-0.7v83c0,1.4-0.2,2.4-0.7,2.9
			c-0.5,0.5-1.5,0.8-3,0.8h-14.3c-2.4,0-3.7-1.2-3.7-3.7v-105c0-2.4,1.2-3.7,3.7-3.7h26c1.6,0,2.7,0.8,3.3,2.4l18.5,61.7h1
			l18.7-61.7C992.1,295.8,993.2,295,995.1,295z"/>
		<path class="st0" d="M1065.8,407.3H1051c-2.4,0-3.7-1.2-3.7-3.7v-105c0-2.4,1.2-3.7,3.7-3.7h42.6c9.1,0,16.1,2.5,21.1,7.4
			c5,5,7.5,12,7.5,21.1v16.8c0,9.1-2.5,16.1-7.5,21.1c-5,5-12.1,7.4-21.1,7.4h-22c-1.4,0-2.1,0.6-2.1,1.9v33
			C1069.5,406.1,1068.3,407.3,1065.8,407.3z M1071.4,349.3h18.5c3.7,0,6.3-0.8,7.9-2.4c1.5-1.6,2.3-4.2,2.3-7.8v-14.7
			c0-3.7-0.8-6.4-2.3-7.9c-1.5-1.6-4.1-2.4-7.9-2.4h-18.5c-1.3,0-1.9,0.6-1.9,1.9v31.3C1069.5,348.7,1070.1,349.3,1071.4,349.3z"/>
	</g>
	<g>
		<path class="st0" d="M1185.8,401.4V297.4h9.7v104.1H1185.8z"/>
		<path class="st0" d="M1292.9,297.3v104.2h-12.4l-57.2-89.3v89.3h-9.7V297.3h12.5l57.1,89.1v-89.1H1292.9z"/>
		<path class="st0" d="M1380.6,329.7v-6c0-8-5.3-14.5-11.8-14.5h-36.4c-6.5,0-11.8,6.5-11.8,14.5v5.1c0,8,5.3,14.5,11.8,14.5h36.4
			c11.8,0,21.5,11.9,21.5,26.5v5.1c0,14.6-9.6,26.5-21.5,26.5h-36.4c-11.8,0-21.5-11.9-21.5-26.5v-6h9.7v6c0,8,5.3,14.5,11.8,14.5
			h36.4c6.5,0,11.8-6.5,11.8-14.5v-5.1c0-8-5.3-14.5-11.8-14.5h-36.4c-11.8,0-21.5-11.9-21.5-26.5v-5.1c0-14.6,9.6-26.5,21.5-26.5
			h36.4c11.8,0,21.5,11.9,21.5,26.5v6H1380.6z"/>
		<path class="st0" d="M1481,297.3v11.9h-34.5v92.2h-9.7v-92.2h-34.5v-11.9H1481z"/>
		<path class="st0" d="M1493.1,401.4V297.4h9.7v104.1H1493.1z"/>
		<path class="st0" d="M1593.6,297.3v11.9h-34.5v92.2h-9.7v-92.2h-34.5v-11.9H1593.6z"/>
		<path class="st0" d="M1687.5,297.3v74.9c0,16.2-10.7,29.3-23.8,29.3h-34.2c-13.1,0-23.8-13.1-23.8-29.3v-74.9h9.7v74.9
			c0,9.6,6.3,17.4,14.1,17.4h34.2c7.8,0,14.1-7.8,14.1-17.4v-74.9H1687.5z"/>
		<path class="st0" d="M1778.2,297.3v11.9h-34.5v92.2h-9.7v-92.2h-34.5v-11.9H1778.2z"/>
		<path class="st0" d="M1800,309.1v34.2h46.8v11.9H1800v34.2h67v11.9h-76.7V297.2h76.7v11.9H1800z"/>
	</g>
</g>
</svg>
